<svg version="1.2" xmlns="http://www.w3.org/2000/svg" viewBox="0 0 75 95" width="75" height="95">
	<title>noun-address-2955038-svg</title>
	<style>
		tspan { white-space:pre } 
		.s0 { fill: #000000 } 
		.t1 { font-size: 5px;fill: #000000;font-family: "' Helvetica  Neue'" } 
	</style>
	<g id="Layer">
		<path id="Layer" fill-rule="evenodd" class="s0" d="m38 6c13.7-0.1 26.2 9 29.9 22.8 0.9 3.1 1.1 6.1 1.1 9-0.1 10.4-5.7 19.4-12 28.1-6.3 8.8-13.4 17.3-17.2 26.7q-0.2 0.6-0.7 0.9-0.5 0.3-1.1 0.3-0.6 0-1.1-0.3-0.5-0.3-0.7-0.9c-3.8-9.4-10.9-17.9-17.2-26.7-6.3-8.7-11.9-17.7-12-28.1 0-2.9 0.2-5.9 1.1-9.1 3.7-13.7 16.2-22.8 29.9-22.7q0 0 0 0zm-26.1 23.8c-0.7 2.6-0.9 5.3-0.9 8 0.1 9 5 17.2 11.2 25.8 5.4 7.5 11.6 15.1 15.8 23.7 4.2-8.6 10.4-16.2 15.8-23.7 6.2-8.6 11.1-16.8 11.2-25.8 0-2.7-0.2-5.4-0.9-8-3.3-12-14.2-19.9-26.1-19.8q0 0 0 0 0 0 0 0 0 0 0 0 0 0 0 0c-11.9-0.1-22.8 7.8-26.1 19.8zm38.9 6.9c0 7.1-5.8 12.8-12.8 12.8-7.1 0-12.9-5.8-12.9-12.8 0-7.1 5.8-12.8 12.8-12.8 7.1 0 12.9 5.8 12.9 12.8zm-21.7 0c0 4.9 3.9 8.8 8.8 8.8 4.9 0 8.9-3.9 8.9-8.8 0-4.9-4-8.8-8.9-8.8-4.9 0-8.8 3.9-8.8 8.8z"/>
	</g>
	<text id="Created by cindy clegane" style="transform: matrix(1,0,0,1,-12,115)" >
		<tspan x="0" y="0" class="t1">Created by cindy clegane
</tspan>
	</text>
	<text id="from the Noun Project" style="transform: matrix(1,0,0,1,-12,120)" >
		<tspan x="0" y="0" class="t1">from the Noun Project
</tspan>
	</text>
</svg>