<svg width="194" height="65" viewBox="0 0 194 65" fill="none" xmlns="http://www.w3.org/2000/svg">
<rect x="1.25762" y="0.806452" width="191.935" height="62.9032" rx="8.87097" fill="white"/>
<rect x="1.25762" y="0.806452" width="191.935" height="62.9032" rx="8.87097" stroke="black" stroke-width="1.6129"/>
<path d="M40.2972 33.4892C40.3168 32.0055 40.7205 30.5507 41.4707 29.2603C42.2209 27.9698 43.2933 26.8855 44.588 26.1084C43.7655 24.9615 42.6804 24.0177 41.4189 23.3519C40.1574 22.6861 38.7543 22.3166 37.321 22.2728C34.2634 21.9595 31.2993 24.0591 29.7412 24.0591C28.153 24.0591 25.7541 22.304 23.1709 22.3558C21.5 22.4085 19.8716 22.8829 18.4443 23.7327C17.017 24.5825 15.8396 25.7788 15.0266 27.205C11.5053 33.1572 14.1319 41.905 17.5051 46.7164C19.1928 49.0724 21.1652 51.7041 23.7461 51.6108C26.2716 51.5085 27.2149 50.0385 30.2634 50.0385C33.2837 50.0385 34.1686 51.6108 36.8019 51.5515C39.5119 51.5085 41.2193 49.185 42.8478 46.8067C44.0604 45.128 44.9935 43.2726 45.6126 41.3094C44.0381 40.6592 42.6945 39.571 41.7493 38.1804C40.8041 36.7897 40.2991 35.1582 40.2972 33.4892Z" fill="black"/>
<path d="M35.3244 19.1084C36.802 17.3766 37.53 15.1507 37.3537 12.9033C35.0962 13.1348 33.0109 14.1882 31.5134 15.8535C30.7811 16.6671 30.2203 17.6135 29.863 18.6388C29.5057 19.6641 29.3589 20.7481 29.4309 21.8288C30.56 21.8402 31.6771 21.6012 32.6979 21.13C33.7188 20.6588 34.6168 19.9675 35.3244 19.1084Z" fill="black"/>
<path d="M59.2758 18.3249H62.6143C65.4991 18.3249 66.9025 20.0402 66.9025 23.1518C66.9025 26.2635 65.4849 28 62.6143 28H59.2758V18.3249ZM60.8848 19.6787V26.6462H62.4371C64.3508 26.6462 65.251 25.4909 65.251 23.1731C65.251 20.8412 64.3437 19.6787 62.4371 19.6787H60.8848ZM71.9916 20.3805C73.9479 20.3805 75.3159 21.6492 75.3159 23.7543V24.7254C75.3159 26.9014 73.9479 28.1276 71.9916 28.1276C70.007 28.1276 68.6532 26.9155 68.6532 24.7325V23.7614C68.6532 21.713 70.0283 20.3805 71.9916 20.3805ZM71.9987 21.6492C70.8788 21.6492 70.2409 22.5848 70.2409 23.8394V24.6758C70.2409 25.9303 70.8363 26.8588 71.9987 26.8588C73.147 26.8588 73.7353 25.9374 73.7353 24.6758V23.8394C73.7353 22.5848 73.1186 21.6492 71.9987 21.6492ZM86.8692 20.508L84.8988 28H83.2969L81.7305 22.4714H81.6879L80.1499 28H78.5409L76.4854 20.508H78.1794L79.3844 26.2209H79.4552L80.965 20.508H82.4463L83.9986 26.2209H84.0695L85.2957 20.508H86.8692ZM88.4286 28V20.508H89.9738V21.8547H90.0517C90.2431 21.2664 90.7889 20.3946 92.3057 20.3946C93.8154 20.3946 94.829 21.231 94.829 22.9392V28H93.2555V23.3999C93.2555 22.2588 92.6601 21.7342 91.7741 21.7342C90.6117 21.7342 90.0021 22.6273 90.0021 23.8394V28H88.4286ZM97.2106 28V17.8146H98.7841V28H97.2106ZM104.185 20.3805C106.141 20.3805 107.509 21.6492 107.509 23.7543V24.7254C107.509 26.9014 106.141 28.1276 104.185 28.1276C102.2 28.1276 100.847 26.9155 100.847 24.7325V23.7614C100.847 21.713 102.222 20.3805 104.185 20.3805ZM104.192 21.6492C103.072 21.6492 102.434 22.5848 102.434 23.8394V24.6758C102.434 25.9303 103.03 26.8588 104.192 26.8588C105.34 26.8588 105.929 25.9374 105.929 24.6758V23.8394C105.929 22.5848 105.312 21.6492 104.192 21.6492ZM111.585 28.1134C110.132 28.1134 109.132 27.2203 109.132 25.824C109.132 24.4986 110.054 23.6055 111.783 23.6055H113.676V22.9038C113.676 22.0461 113.13 21.6421 112.265 21.6421C111.415 21.6421 111.032 21.9965 110.912 22.4927H109.416C109.508 21.2381 110.451 20.3946 112.315 20.3946C113.917 20.3946 115.242 21.0609 115.242 22.925V28H113.747V27.029H113.676C113.343 27.6031 112.691 28.1134 111.585 28.1134ZM112.074 26.8943C112.967 26.8943 113.676 26.2847 113.676 25.4696V24.6616H112.031C111.117 24.6616 110.713 25.1223 110.713 25.746C110.713 26.5257 111.365 26.8943 112.074 26.8943ZM120.09 20.4088C121.147 20.4088 121.955 20.8766 122.245 21.635H122.323V17.8146H123.897V28H122.366V26.8021H122.288C122.061 27.5605 121.161 28.0992 120.069 28.0992C118.347 28.0992 117.227 26.873 117.227 24.8955V23.6126C117.227 21.635 118.368 20.4088 120.09 20.4088ZM120.53 21.6988C119.481 21.6988 118.829 22.4785 118.829 23.8394V24.6616C118.829 26.0295 119.488 26.8092 120.565 26.8092C121.629 26.8092 122.323 26.0366 122.323 24.7608V23.6267C122.323 22.4714 121.565 21.6988 120.53 21.6988ZM132.537 20.3805C134.493 20.3805 135.861 21.6492 135.861 23.7543V24.7254C135.861 26.9014 134.493 28.1276 132.537 28.1276C130.552 28.1276 129.198 26.9155 129.198 24.7325V23.7614C129.198 21.713 130.574 20.3805 132.537 20.3805ZM132.544 21.6492C131.424 21.6492 130.786 22.5848 130.786 23.8394V24.6758C130.786 25.9303 131.382 26.8588 132.544 26.8588C133.692 26.8588 134.281 25.9374 134.281 24.6758V23.8394C134.281 22.5848 133.664 21.6492 132.544 21.6492ZM137.888 28V20.508H139.433V21.8547H139.511C139.703 21.2664 140.249 20.3946 141.765 20.3946C143.275 20.3946 144.289 21.231 144.289 22.9392V28H142.715V23.3999C142.715 22.2588 142.12 21.7342 141.234 21.7342C140.071 21.7342 139.462 22.6273 139.462 23.8394V28H137.888ZM150.377 20.5576V18.6864H151.915V20.5576H153.595V21.791H151.915V25.7673C151.915 26.5824 152.22 26.8092 153.064 26.8092C153.276 26.8092 153.56 26.795 153.68 26.7809V27.9858C153.553 28.0071 153.028 28.0496 152.674 28.0496C150.852 28.0496 150.356 27.3975 150.356 25.8949V21.791H149.215V20.5576H150.377ZM155.58 28V17.8146H157.146V21.8547H157.224C157.387 21.3231 157.997 20.3946 159.499 20.3946C160.96 20.3946 162.002 21.2381 162.002 22.9463V28H160.435V23.407C160.435 22.2658 159.804 21.7342 158.911 21.7342C157.784 21.7342 157.146 22.6202 157.146 23.8394V28H155.58ZM167.282 28.1276C165.241 28.1276 163.972 26.873 163.972 24.7608V23.7472C163.972 21.6208 165.361 20.3805 167.19 20.3805C169.068 20.3805 170.394 21.6846 170.394 23.7472V24.6261H165.531V24.9947C165.531 26.0721 166.169 26.8659 167.275 26.8659C168.097 26.8659 168.664 26.4761 168.771 26.0083H170.309C170.216 26.873 169.302 28.1276 167.282 28.1276ZM165.531 23.5984H168.856V23.4991C168.856 22.3722 168.196 21.6208 167.197 21.6208C166.198 21.6208 165.531 22.3722 165.531 23.4991V23.5984Z" fill="black"/>
<path d="M61.5582 50H58.2835L64.9462 30.6499H68.5469L75.1954 50H71.7932L70.0779 44.6415H63.2876L61.5582 50ZM66.7607 33.9954H66.6331L64.0106 42.1749H69.3549L66.7607 33.9954ZM84.2329 50.2126C82.2908 50.2126 80.8165 49.2912 80.0226 47.9161H79.9092V54.9757H76.7622V35.0161H79.8242V37.2133H79.9376C80.7598 35.7816 82.2908 34.8176 84.3037 34.8176C87.6634 34.8176 90.0592 37.3551 90.0592 41.8347V43.1672C90.0592 47.6184 87.6918 50.2126 84.2329 50.2126ZM83.5099 47.6184C85.5087 47.6184 86.8696 46.0166 86.8696 42.9971V41.9481C86.8696 39.042 85.5937 37.3834 83.4532 37.3834C81.2559 37.3834 79.8809 39.1696 79.8809 41.9339V42.9971C79.8809 45.8323 81.2701 47.6184 83.5099 47.6184ZM100.231 50.2126C98.2886 50.2126 96.8143 49.2912 96.0205 47.9161H95.9071V54.9757H92.76V35.0161H95.822V37.2133H95.9354C96.7576 35.7816 98.2886 34.8176 100.302 34.8176C103.661 34.8176 106.057 37.3551 106.057 41.8347V43.1672C106.057 47.6184 103.69 50.2126 100.231 50.2126ZM99.5077 47.6184C101.507 47.6184 102.867 46.0166 102.867 42.9971V41.9481C102.867 39.042 101.592 37.3834 99.451 37.3834C97.2538 37.3834 95.8787 39.1696 95.8787 41.9339V42.9971C95.8787 45.8323 97.268 47.6184 99.5077 47.6184ZM112.579 44.6273H115.726C115.867 46.3001 117.342 47.7319 120.078 47.7319C122.587 47.7319 124.075 46.5553 124.075 44.7266C124.075 43.2523 123.083 42.4584 121.013 41.9623L117.838 41.1684C115.343 40.5872 113.103 39.0987 113.103 35.9517C113.103 32.2518 116.335 30.2246 120.092 30.2246C123.848 30.2246 126.981 32.2518 127.052 35.8666H123.962C123.82 34.2222 122.558 32.8613 120.049 32.8613C117.838 32.8613 116.335 33.9103 116.335 35.7107C116.335 36.9723 117.214 37.8796 119.014 38.2907L122.176 39.0704C125.082 39.7792 127.293 41.1542 127.293 44.443C127.293 48.2422 124.217 50.3827 119.837 50.3827C114.45 50.3827 112.65 47.2357 112.579 44.6273ZM131.128 35.0161V31.3729H134.218V35.0161H137.139V37.5394H134.218V45.5346C134.218 47.1648 134.828 47.6184 136.515 47.6184C136.784 47.6184 137.04 47.6184 137.224 47.5901V50C136.969 50.0425 136.373 50.0992 135.735 50.0992C132.092 50.0992 131.086 48.795 131.086 45.7898V37.5394H129.016V35.0161H131.128ZM145.638 34.7609C149.947 34.7609 152.286 37.7945 152.286 41.8772V43.0822C152.286 47.3066 149.961 50.2552 145.638 50.2552C141.314 50.2552 138.961 47.3066 138.961 43.0822V41.8772C138.961 37.8087 141.328 34.7609 145.638 34.7609ZM145.638 37.2842C143.299 37.2842 142.136 39.198 142.136 41.9197V43.068C142.136 45.7472 143.284 47.7177 145.638 47.7177C147.991 47.7177 149.125 45.7614 149.125 43.068V41.9197C149.125 39.1838 147.977 37.2842 145.638 37.2842ZM154.944 50V35.0161H158.091V36.9865H158.205C158.588 36.0509 159.707 34.8034 161.791 34.8034C162.202 34.8034 162.557 34.8318 162.855 34.8885V37.667C162.585 37.5961 162.032 37.5536 161.508 37.5536C158.984 37.5536 158.134 39.1129 158.134 41.1259V50H154.944ZM170.489 50.2552C166.477 50.2552 163.925 47.6043 163.925 43.1672V41.6504C163.925 37.4685 166.42 34.7609 170.361 34.7609C174.359 34.7609 176.769 37.5677 176.769 41.7922V43.2239H167.03V43.5783C167.03 46.1016 168.391 47.7744 170.531 47.7744C172.133 47.7744 173.225 46.9805 173.607 45.6905H176.598C176.145 48.1146 174.188 50.2552 170.489 50.2552ZM167.03 41.0267H173.692V40.9983C173.692 38.8719 172.374 37.1992 170.375 37.1992C168.348 37.1992 167.03 38.8719 167.03 40.9983V41.0267Z" fill="black"/>
</svg>
