<svg width="23" height="22" viewBox="0 0 23 22" fill="none" xmlns="http://www.w3.org/2000/svg">
<path d="M11.4811 10.9999C10.0145 10.9999 8.7589 10.4777 7.71445 9.43325C6.67001 8.38881 6.14779 7.13325 6.14779 5.66659C6.14779 4.19992 6.67001 2.94436 7.71445 1.89992C8.7589 0.855474 10.0145 0.333252 11.4811 0.333252C12.9478 0.333252 14.2033 0.855474 15.2478 1.89992C16.2922 2.94436 16.8145 4.19992 16.8145 5.66659C16.8145 7.13325 16.2922 8.38881 15.2478 9.43325C14.2033 10.4777 12.9478 10.9999 11.4811 10.9999ZM0.814453 18.9999V17.9333C0.814453 17.1777 1.00912 16.4835 1.39845 15.8506C1.78779 15.2177 2.30423 14.7341 2.94779 14.3999C4.32556 13.711 5.72556 13.1946 7.14779 12.8506C8.57001 12.5066 10.0145 12.3341 11.4811 12.3333C12.9478 12.3324 14.3922 12.5048 15.8145 12.8506C17.2367 13.1964 18.6367 13.7128 20.0145 14.3999C20.6589 14.7333 21.1758 15.2168 21.5651 15.8506C21.9545 16.4844 22.1487 17.1786 22.1478 17.9333V18.9999C22.1478 19.7333 21.8869 20.3613 21.3651 20.8839C20.8433 21.4066 20.2153 21.6675 19.4811 21.6666H3.48112C2.74779 21.6666 2.12023 21.4057 1.59845 20.8839C1.07668 20.3621 0.815342 19.7341 0.814453 18.9999Z" fill="black"/>
</svg>
