<svg width="29" height="28" viewBox="0 0 29 28" fill="none" xmlns="http://www.w3.org/2000/svg">
<path fill-rule="evenodd" clip-rule="evenodd" d="M12.5958 0.800084C13.0678 0.328716 13.6993 0.0513554 14.3658 0.0227233C15.0322 -0.00590871 15.6852 0.216267 16.1958 0.645417L16.3665 0.801418L18.8998 3.33342H22.4812C23.1537 3.33354 23.8014 3.58778 24.2944 4.0452C24.7874 4.50262 25.0894 5.12944 25.1398 5.80008L25.1478 6.00008V9.58142L27.6812 12.1148C28.1529 12.5868 28.4305 13.2186 28.4591 13.8853C28.4878 14.5521 28.2654 15.2053 27.8358 15.7161L27.6798 15.8854L25.1465 18.4188V22.0001C25.1467 22.6729 24.8926 23.3208 24.4352 23.8141C23.9777 24.3075 23.3507 24.6096 22.6798 24.6601L22.4812 24.6668H18.9012L16.3678 27.2001C15.8958 27.6718 15.264 27.9494 14.5973 27.9781C13.9305 28.0067 13.2773 27.7843 12.7665 27.3548L12.5972 27.2001L10.0638 24.6668H6.48116C5.80839 24.667 5.16041 24.4129 4.6671 23.9554C4.17379 23.498 3.87162 22.871 3.82116 22.2001L3.81449 22.0001V18.4188L1.28116 15.8854C0.809421 15.4134 0.531825 14.7816 0.50319 14.1148C0.474555 13.4481 0.696963 12.7948 1.12649 12.2841L1.28116 12.1148L3.81449 9.58142V6.00008C3.81462 5.32755 4.06886 4.67989 4.52628 4.18686C4.9837 3.69384 5.61052 3.39186 6.28116 3.34142L6.48116 3.33342H10.0625L12.5958 0.800084ZM18.5865 9.97742L12.9278 15.6361L10.5705 13.2788C10.3203 13.0287 9.98105 12.8884 9.62736 12.8885C9.27366 12.8886 8.93451 13.0292 8.6845 13.2794C8.43448 13.5296 8.2941 13.8689 8.29423 14.2226C8.29435 14.5763 8.43497 14.9154 8.68516 15.1654L11.8905 18.3708C12.0267 18.507 12.1884 18.6151 12.3664 18.6889C12.5444 18.7626 12.7352 18.8006 12.9278 18.8006C13.1205 18.8006 13.3113 18.7626 13.4893 18.6889C13.6672 18.6151 13.829 18.507 13.9652 18.3708L20.4718 11.8628C20.7147 11.6113 20.8491 11.2745 20.8461 10.9249C20.843 10.5753 20.7028 10.2409 20.4556 9.99366C20.2084 9.74645 19.874 9.60622 19.5244 9.60319C19.1748 9.60015 18.838 9.73454 18.5865 9.97742Z" fill="black"/>
</svg>
