<svg version="1.2" xmlns="http://www.w3.org/2000/svg" viewBox="0 0 71 59" width="71" height="59">
	<title>noun-date-6415577-svg</title>
	<style>
		tspan { white-space:pre } 
		.s0 { fill: #000000 } 
		.t1 { font-size: 5px;fill: #000000;font-family: "' Helvetica  Neue'" } 
	</style>
	<path id="Layer" class="s0" d="m19.5 33h-5.7c-0.4 0-0.8 0.2-1.1 0.4-0.3 0.3-0.4 0.7-0.4 1.1 0 0.4 0.1 0.8 0.4 1.1 0.3 0.2 0.7 0.4 1.1 0.4h5.7c0.4 0 0.7-0.2 1-0.4 0.3-0.3 0.5-0.7 0.5-1.1 0-0.4-0.2-0.8-0.5-1.1-0.3-0.2-0.6-0.4-1-0.4z"/>
	<path id="Layer" class="s0" d="m32.4 33h-5.7c-0.4 0-0.8 0.2-1.1 0.4-0.2 0.3-0.4 0.7-0.4 1.1 0 0.4 0.2 0.8 0.4 1.1 0.3 0.2 0.7 0.4 1.1 0.4h5.7c0.4 0 0.8-0.2 1-0.4 0.3-0.3 0.5-0.7 0.5-1.1 0-0.4-0.2-0.8-0.5-1.1-0.2-0.2-0.6-0.4-1-0.4z"/>
	<path id="Layer" class="s0" d="m45.3 33h-5.7c-0.4 0-0.8 0.2-1 0.4-0.3 0.3-0.5 0.7-0.5 1.1 0 0.4 0.2 0.8 0.5 1.1 0.2 0.2 0.6 0.4 1 0.4h5.7c0.4 0 0.8-0.2 1.1-0.4 0.2-0.3 0.4-0.7 0.4-1.1 0-0.4-0.2-0.8-0.4-1.1-0.3-0.2-0.7-0.4-1.1-0.4z"/>
	<path id="Layer" class="s0" d="m58.2 33h-5.7c-0.4 0-0.7 0.2-1 0.4-0.3 0.3-0.5 0.7-0.5 1.1 0 0.4 0.2 0.8 0.5 1.1 0.3 0.2 0.6 0.4 1 0.4h5.7c0.4 0 0.8-0.2 1.1-0.4 0.3-0.3 0.4-0.7 0.4-1.1 0-0.4-0.1-0.8-0.4-1.1-0.3-0.2-0.7-0.4-1.1-0.4z"/>
	<path id="Layer" class="s0" d="m45.3 26.8l-5.7-0.1c-0.4 0-0.8 0.2-1 0.5-0.3 0.3-0.5 0.7-0.5 1 0 0.4 0.2 0.8 0.5 1.1 0.2 0.3 0.6 0.4 1 0.4h5.7c0.4 0 0.8-0.1 1.1-0.4 0.2-0.3 0.4-0.7 0.4-1.1 0-0.3-0.2-0.7-0.4-1-0.3-0.3-0.7-0.5-1.1-0.5z"/>
	<path id="Layer" class="s0" d="m58.2 26.8l-5.7-0.1c-0.4 0-0.7 0.2-1 0.5-0.3 0.3-0.5 0.7-0.5 1 0 0.4 0.2 0.8 0.5 1.1 0.3 0.3 0.6 0.4 1 0.4h5.7c0.4 0 0.8-0.1 1.1-0.4 0.3-0.3 0.4-0.7 0.4-1.1 0-0.3-0.1-0.7-0.4-1-0.3-0.3-0.7-0.5-1.1-0.5z"/>
	<path id="Layer" class="s0" d="m19.5 39.3h-5.7c-0.4 0-0.8 0.1-1.1 0.4-0.3 0.3-0.4 0.7-0.4 1.1 0 0.4 0.1 0.7 0.4 1 0.3 0.3 0.7 0.5 1.1 0.5h5.7c0.4 0 0.7-0.2 1-0.5 0.3-0.3 0.5-0.6 0.5-1 0-0.4-0.2-0.8-0.5-1.1-0.3-0.3-0.6-0.4-1-0.4z"/>
	<path id="Layer" class="s0" d="m32.4 39.3h-5.7c-0.4 0-0.8 0.1-1.1 0.4-0.2 0.3-0.4 0.7-0.4 1.1 0 0.4 0.2 0.7 0.4 1 0.3 0.3 0.7 0.5 1.1 0.5h5.7c0.4 0 0.8-0.2 1-0.5 0.3-0.3 0.5-0.6 0.5-1 0-0.4-0.2-0.8-0.5-1.1-0.2-0.3-0.6-0.4-1-0.4z"/>
	<path id="Layer" class="s0" d="m45.3 39.3h-5.7c-0.4 0-0.8 0.1-1 0.4-0.3 0.3-0.5 0.7-0.5 1.1 0 0.4 0.2 0.7 0.5 1 0.2 0.3 0.6 0.5 1 0.5h5.7c0.4 0 0.8-0.2 1.1-0.5 0.2-0.3 0.4-0.6 0.4-1 0-0.4-0.2-0.8-0.4-1.1-0.3-0.3-0.7-0.4-1.1-0.4z"/>
	<path id="Layer" class="s0" d="m58.2 39.3h-5.7c-0.4 0-0.7 0.1-1 0.4-0.3 0.3-0.5 0.7-0.5 1.1 0 0.4 0.2 0.7 0.5 1 0.3 0.3 0.6 0.5 1 0.5h5.7c0.4 0 0.8-0.2 1.1-0.5 0.3-0.3 0.4-0.6 0.4-1 0-0.4-0.1-0.8-0.4-1.1-0.3-0.3-0.7-0.4-1.1-0.4z"/>
	<path id="Layer" class="s0" d="m19.5 45.5h-5.7c-0.4 0-0.8 0.2-1.1 0.5-0.3 0.2-0.4 0.6-0.4 1 0 0.4 0.1 0.8 0.4 1.1 0.3 0.3 0.7 0.4 1.1 0.4h5.7c0.4 0 0.7-0.1 1-0.4 0.3-0.3 0.5-0.7 0.5-1.1 0-0.4-0.2-0.8-0.5-1-0.3-0.3-0.6-0.5-1-0.5z"/>
	<path id="Layer" class="s0" d="m32.4 45.5h-5.7c-0.4 0-0.8 0.2-1.1 0.5-0.2 0.2-0.4 0.6-0.4 1 0 0.4 0.2 0.8 0.4 1.1 0.3 0.3 0.7 0.4 1.1 0.4h5.7c0.4 0 0.8-0.1 1-0.4 0.3-0.3 0.5-0.7 0.5-1.1 0-0.4-0.2-0.8-0.5-1-0.2-0.3-0.6-0.5-1-0.5z"/>
	<path id="Layer" class="s0" d="m45.3 45.5h-5.7c-0.4 0-0.8 0.2-1 0.5-0.3 0.2-0.5 0.6-0.5 1 0 0.4 0.2 0.8 0.5 1.1 0.2 0.3 0.6 0.4 1 0.4h5.7c0.4 0 0.8-0.1 1.1-0.4 0.2-0.3 0.4-0.7 0.4-1.1 0-0.4-0.2-0.8-0.4-1-0.3-0.3-0.7-0.5-1.1-0.5z"/>
	<path id="Layer" fill-rule="evenodd" class="s0" d="m64.4 7.1q1 0.5 1.9 1.3 0.8 0.8 1.3 1.9 0.4 1.1 0.4 2.3v38q0 1.2-0.5 2.2-0.4 1.1-1.2 2-0.9 0.8-2 1.2-1 0.5-2.2 0.5h-52.2q-1.2 0-2.3-0.5-1-0.4-1.9-1.2-0.8-0.9-1.2-2-0.5-1-0.5-2.2v-38q0-1.2 0.5-2.3 0.4-1.1 1.2-1.9 0.9-0.8 1.9-1.3 1.1-0.4 2.3-0.4h4.4v-0.3c0.1-1.3 0.6-2.5 1.5-3.3 1-0.9 2.2-1.4 3.4-1.4 1.3 0 2.5 0.5 3.4 1.4 0.9 0.8 1.5 2 1.5 3.3v0.3h24.3l-0.1-0.3c0.1-1.3 0.6-2.5 1.5-3.5 0.9-0.9 2.2-1.4 3.5-1.4 1.2 0 2.5 0.5 3.4 1.4 0.9 1 1.4 2.2 1.4 3.5v0.3h4q1.2 0 2.3 0.4zm-11.9-2.5q-0.3 0.2-0.6 0.5-0.3 0.2-0.4 0.6-0.1 0.3-0.1 0.7v3.4c0 0.5 0.2 1 0.5 1.3 0.4 0.4 0.8 0.6 1.4 0.6 0.5 0 0.9-0.2 1.3-0.6 0.3-0.3 0.5-0.8 0.5-1.3v-3.4q0-0.4-0.1-0.7-0.1-0.4-0.4-0.6-0.3-0.3-0.6-0.5-0.4-0.1-0.8-0.1-0.3 0-0.7 0.1zm-33.3-0.1q-0.3 0-0.7 0.1-0.3 0.2-0.6 0.5-0.3 0.2-0.4 0.6-0.2 0.3-0.2 0.7v1.7q0 0 0 0 0.1 0.1 0.1 0.1 0 0-0.1 0 0 0 0 0v1.6c0.1 0.5 0.3 0.9 0.6 1.3 0.4 0.3 0.9 0.5 1.3 0.5 0.5 0 1-0.2 1.3-0.5 0.4-0.4 0.6-0.8 0.6-1.3v-3.4q0-0.4-0.1-0.7-0.1-0.4-0.4-0.6-0.3-0.3-0.6-0.5-0.4-0.1-0.8-0.1zm-9.3 5.2q-0.6 0-1.1 0.2-0.5 0.2-0.9 0.6-0.4 0.4-0.7 1-0.2 0.5-0.2 1.1v6.6h58v-6.6q0-0.6-0.2-1.1-0.2-0.6-0.6-1-0.5-0.4-1-0.6-0.5-0.2-1.1-0.2h-3.9v0.1c0 1.3-0.6 2.5-1.5 3.5-0.9 0.9-2.1 1.4-3.4 1.4-1.3 0-2.6-0.5-3.5-1.4-0.9-1-1.4-2.2-1.4-3.5v-0.1h-24.2v0.1c-0.1 1.3-0.6 2.5-1.6 3.3-0.9 0.9-2.1 1.4-3.3 1.4-1.3 0-2.5-0.5-3.4-1.4-1-0.8-1.5-2-1.5-3.3v-0.1zm53.2 43.6q0.6-0.2 1-0.7 0.4-0.4 0.6-0.9 0.2-0.5 0.2-1.1v-28.4h-58v28.4q0 0.6 0.3 1.1 0.2 0.5 0.6 0.9 0.4 0.5 0.9 0.7 0.6 0.2 1.2 0.2h52.1q0.6 0 1.1-0.2z"/>
	<text id="Created by Kholila wale" style="transform: matrix(1,0,0,1,-14,94)" >
		<tspan x="0" y="0" class="t1">Created by Kholila wale
</tspan>
	</text>
	<text id="from the Noun Project" style="transform: matrix(1,0,0,1,-14,99)" >
		<tspan x="0" y="0" class="t1">from the Noun Project
</tspan>
	</text>
</svg>