<svg version="1.2" xmlns="http://www.w3.org/2000/svg" viewBox="0 0 33 33" width="33" height="33">
	<title>noun-description-2850834-svg</title>
	<style>
		tspan { white-space:pre } 
		.s0 { fill: #000000 } 
		.t1 { font-size: 5px;fill: #000000;font-family: "' Helvetica  Neue'" } 
	</style>
	<g id="Layer">
		<path id="Layer" fill-rule="evenodd" class="s0" d="m30 9v16q0 1-0.4 1.9-0.4 0.9-1.1 1.6-0.7 0.7-1.6 1.1-0.9 0.4-1.9 0.4h-16q-1 0-1.9-0.4-0.9-0.4-1.6-1.1-0.7-0.7-1.1-1.6-0.4-0.9-0.4-1.9v-1.1q0-0.5 0.3-0.8 0.3-0.2 0.7-0.2 0.4 0 0.7 0.2 0.3 0.3 0.3 0.8v1.1q0 0.6 0.2 1.1 0.3 0.6 0.7 1 0.4 0.4 1 0.7 0.5 0.2 1.1 0.2h16q0.6 0 1.1-0.2 0.6-0.3 1-0.7 0.4-0.4 0.7-1 0.2-0.5 0.2-1.1v-16q0-0.6-0.2-1.1-0.3-0.6-0.7-1-0.4-0.4-1-0.7-0.5-0.2-1.1-0.2h-16q-0.6 0-1.1 0.2-0.6 0.3-1 0.7-0.4 0.4-0.7 1-0.2 0.5-0.2 1.1v10.9q0 0.4-0.3 0.7-0.3 0.3-0.7 0.3-0.4 0-0.7-0.3-0.3-0.3-0.3-0.7v-10.9q0-1 0.4-1.9 0.4-0.9 1.1-1.6 0.7-0.7 1.6-1.1 0.9-0.4 1.9-0.4h16q1 0 1.9 0.4 0.9 0.4 1.6 1.1 0.7 0.7 1.1 1.6 0.4 0.9 0.4 1.9zm-13 15v-9h-2q-0.4 0-0.7-0.3-0.3-0.3-0.3-0.7 0-0.4 0.3-0.7 0.3-0.3 0.7-0.3h3q0.2 0 0.4 0.1 0.2 0.1 0.3 0.2 0.1 0.1 0.2 0.3 0.1 0.2 0.1 0.4v10h2q0.4 0 0.7 0.3 0.3 0.3 0.3 0.7 0 0.4-0.3 0.7-0.3 0.3-0.7 0.3h-6q-0.4 0-0.7-0.3-0.3-0.3-0.3-0.7 0-0.4 0.3-0.7 0.3-0.3 0.7-0.3zm1.8-13.2q-0.1 0.3-0.4 0.6-0.3 0.3-0.6 0.4-0.4 0.2-0.8 0.2c-0.8 0-1.5-0.5-1.8-1.2-0.4-0.8-0.2-1.6 0.4-2.2 0.6-0.6 1.4-0.8 2.2-0.4 0.7 0.3 1.2 1 1.2 1.8q0 0.4-0.2 0.8z"/>
	</g>
	<text id="Created by The Icon Z" style="transform: matrix(1,0,0,1,-7,56)" >
		<tspan x="0" y="0" class="t1">Created by The Icon Z
</tspan>
	</text>
	<text id="from the Noun Project" style="transform: matrix(1,0,0,1,-7,61)" >
		<tspan x="0" y="0" class="t1">from the Noun Project
</tspan>
	</text>
</svg>