<svg width="12" height="18" viewBox="0 0 12 18" fill="none" xmlns="http://www.w3.org/2000/svg">
<g clip-path="url(#clip0_5_1406)">
<g clip-path="url(#clip1_5_1406)">
<path opacity="0.7" d="M6.92605 7.18015H10.726L10.3038 8.86904H6.92605V16.469H5.23716V8.86904H1.85938V7.18015H5.23716V5.59935C5.23716 4.09371 5.39421 3.54735 5.68808 2.99678C5.97604 2.45279 6.42089 2.00794 6.96488 1.71998C7.51546 1.42611 8.06181 1.26904 9.56746 1.26904C10.0083 1.26904 10.395 1.31126 10.726 1.39571V2.95793H9.56746C8.44941 2.95793 8.10911 3.0238 7.76204 3.20958C7.50533 3.34638 7.31448 3.53722 7.17768 3.79393C6.9919 4.141 6.92605 4.48131 6.92605 5.59935V7.18015Z" fill="black" stroke="black" stroke-width="0.8"/>
</g>
</g>
<defs>
<clipPath id="clip0_5_1406">
<rect width="11" height="17" fill="white" transform="translate(0.5 0.79834)"/>
</clipPath>
<clipPath id="clip1_5_1406">
<rect width="11" height="17" fill="white" transform="translate(0.5 0.79834)"/>
</clipPath>
</defs>
</svg>
