<svg width="213" height="41" viewBox="0 0 213 41" fill="none" xmlns="http://www.w3.org/2000/svg">
<g clip-path="url(#clip0_29_1916)">
<path d="M72.425 2.27588C72.425 6.02539 69.27 10.223 65.1729 11.1558C64.5236 11.3204 63.8652 11.4027 63.1976 11.421H40.161C40.1336 10.726 40.1701 10.0218 40.289 9.33593C41.1852 5.33035 44.6695 2.43135 48.7757 2.27588L72.425 2.27588Z" fill="black"/>
<path d="M40.1977 15.6279H62.457C67.2216 15.6462 70.7973 17.9599 71.9496 22.0295C72.1783 22.9258 72.3429 23.8494 72.416 24.7731H49.8367C45.0812 24.7365 41.0025 21.682 40.1886 17.2283C40.152 16.6979 40.152 16.1583 40.1886 15.6279H40.1977Z" fill="black"/>
<path d="M3.23302 11.421C3.17815 9.1896 4.01036 7.02221 5.5376 5.39437C7.23859 3.40073 9.73521 2.27588 12.3507 2.30331C19.5571 2.29417 35.4879 2.27588 35.4879 2.27588V3.22697C34.9575 7.36972 30.8239 11.3753 26.544 11.421H3.23302Z" fill="black"/>
<path d="M35.4883 29.4556C35.3877 30.3244 35.2322 31.184 35.0219 32.0345C33.9062 35.6651 30.4036 38.5641 26.6084 38.6007H3.2334V37.8965C3.53519 33.8727 7.44016 29.4556 11.8847 29.4556H35.4974H35.4883Z" fill="black"/>
<path d="M3.2334 15.6367C3.93757 15.6367 18.4326 15.6093 25.4378 15.6367C30.2481 15.655 34.272 18.4626 35.2597 22.715C35.3969 23.3918 35.47 24.0777 35.4974 24.7727H12.8175C8.14434 24.7453 4.47714 21.9011 3.48946 17.6852C3.36143 17.0085 3.27912 16.3317 3.2334 15.6459L3.2334 15.6367Z" fill="black"/>
<path d="M54.1804 29.4556C54.0981 34.5037 50.0011 38.5733 44.953 38.6007H40.2158C40.2158 33.9093 43.5081 29.4556 49.681 29.4556H54.1804Z" fill="black"/>
<path d="M212.219 12.3279L211.319 16.8179H206.269L204.649 24.8979C204.579 25.1979 204.579 25.4579 204.579 25.7179C204.579 26.9479 205.259 27.6679 206.729 27.6679C207.519 27.6679 208.349 27.4079 209.099 26.9579L209.969 31.1079C208.499 32.0079 206.689 32.3079 204.919 32.3079C201.149 32.3079 198.589 30.2179 198.589 26.6979C198.589 26.1379 198.659 25.5379 198.779 24.9379L200.399 16.8179H197.269L198.169 12.3279H201.299L202.279 7.42787H208.159L207.179 12.3279H212.229H212.219ZM181.469 8.55787C179.699 8.55787 178.759 9.49787 178.309 11.5879L178.159 12.3379H183.319L182.419 16.8279H177.409L174.319 32.0179H168.439L172.659 11.1779C173.529 6.79787 176.499 3.95787 181.479 3.95787C183.289 3.95787 184.979 4.36787 186.109 5.07787L183.809 9.26787C183.169 8.77787 182.419 8.55787 181.469 8.55787ZM191.199 32.0079H185.359L189.389 11.8779H195.229L191.199 32.0079ZM193.309 9.07787C191.239 9.07787 189.879 7.72787 189.879 6.04787C189.879 4.09787 191.429 2.56787 193.759 2.56787C195.829 2.56787 197.229 3.83787 197.229 5.48787C197.229 7.61787 195.649 9.07787 193.309 9.07787Z" fill="black"/>
<path d="M156.91 15.9578C154.08 15.9578 152.16 17.6078 151.37 20.1078H161.43C161.43 17.4478 159.62 15.9578 156.91 15.9578ZM166.48 23.5178H150.96C151.15 26.2478 152.85 27.6278 156.2 27.6278C158.27 27.6278 160.23 26.9578 161.63 25.7578L164.08 29.6078C161.74 31.4778 158.69 32.2978 155.6 32.2978C149.27 32.2978 145.24 28.7478 145.24 23.2878C145.24 16.5578 150.14 11.5778 157.18 11.5778C163.1 11.5778 166.82 15.0578 166.82 20.4378C166.82 21.5178 166.67 22.5678 166.48 23.5078V23.5178ZM146.55 9.26777C145.91 8.77777 145.16 8.55777 144.21 8.55777C142.44 8.55777 141.5 9.49777 141.04 11.5878L140.89 12.3378H146.05L145.15 16.8278H140.14L137.05 32.0178H131.17L135.39 11.1878C136.26 6.80777 139.23 3.96777 144.21 3.96777C146.02 3.96777 147.71 4.37777 148.84 5.08777L146.54 9.27777L146.55 9.26777ZM117.5 16.4078C114.03 16.4078 111.55 19.0978 111.55 23.0278C111.55 25.7578 113.24 27.4778 116.19 27.4778C119.66 27.4778 122.14 24.7878 122.14 20.8578C122.14 18.1278 120.44 16.4078 117.5 16.4078ZM125.79 32.0078H120.21L120.59 30.0278C118.97 31.4878 116.86 32.3078 114.37 32.3078C109.66 32.3078 105.63 29.0178 105.63 23.2978C105.63 16.5278 110.57 11.5878 116.82 11.5878C119.76 11.5878 122.1 12.5178 123.42 14.6178L123.95 11.8878H129.83L125.8 32.0078H125.79ZM102.02 17.5278C100.14 16.3678 97.9097 15.9978 96.0297 15.9978C93.3197 15.9978 92.1097 16.8978 92.1097 17.9778C92.1097 20.9278 102.81 18.5778 102.81 25.2678C102.81 29.8678 98.4397 32.2978 92.5997 32.2978C89.0197 32.2978 85.6297 31.3978 83.9297 30.2078L86.1897 25.9778C87.9197 27.1378 90.6697 27.8878 93.2397 27.8878C95.9897 27.8878 97.1997 27.1378 97.1997 25.9478C97.1997 23.1078 86.4597 25.4578 86.4597 18.6578C86.4597 14.1278 90.7197 11.5878 96.6397 11.5878C99.4697 11.5878 102.29 12.2278 104.14 13.2678L102.03 17.5278H102.02Z" fill="black"/>
</g>
<defs>
<clipPath id="clip0_29_1916">
<rect width="212.22" height="39.72" fill="white" transform="translate(0 0.578125)"/>
</clipPath>
</defs>
</svg>
