<svg width="194" height="65" viewBox="0 0 194 65" fill="none" xmlns="http://www.w3.org/2000/svg">
<rect x="0.806452" y="0.806452" width="191.935" height="62.9032" rx="8.87097" fill="white"/>
<rect x="0.806452" y="0.806452" width="191.935" height="62.9032" rx="8.87097" stroke="black" stroke-width="1.6129"/>
<path d="M28.7176 31.3897L13.0479 48.3965C13.0493 48.3996 13.0493 48.4041 13.0508 48.4071C13.5321 50.2537 15.1804 51.6128 17.1378 51.6128C17.9208 51.6128 18.6552 51.3961 19.2851 51.0168L19.3352 50.9867L36.9726 40.5794L28.7176 31.3897Z" fill="#EA4335"/>
<path d="M44.5687 28.494L44.554 28.4834L36.9392 23.9699L28.3604 31.7765L36.9701 40.5779L44.5437 36.1094C45.8712 35.375 46.7734 33.9437 46.7734 32.2942C46.7734 30.6537 45.8845 29.2299 44.5687 28.494Z" fill="#FBBC04"/>
<path d="M13.0466 16.1181C12.9524 16.4733 12.9023 16.8465 12.9023 17.2318V47.2843C12.9023 47.6696 12.9524 48.0428 13.048 48.3965L29.2549 31.8246L13.0466 16.1181Z" fill="#4285F4"/>
<path d="M28.8328 32.2581L36.9422 23.9668L19.3254 13.5219C18.6851 13.1291 17.9375 12.9034 17.1383 12.9034C15.1809 12.9034 13.5296 14.2654 13.0483 16.1136C13.0483 16.1151 13.0469 16.1166 13.0469 16.1181L28.8328 32.2581Z" fill="#34A853"/>
<path d="M70.2742 20.6935C70.2742 22.3065 69.7957 23.5914 68.8387 24.5484C67.7634 25.6882 66.3495 26.2581 64.5968 26.2581C62.9194 26.2581 61.5 25.6774 60.3387 24.5161C59.1774 23.3548 58.5968 21.9247 58.5968 20.2258C58.5968 18.5269 59.1774 17.0968 60.3387 15.9355C61.5 14.7742 62.9194 14.1935 64.5968 14.1935C65.4462 14.1935 66.2473 14.3441 67 14.6452C67.7527 14.9462 68.371 15.371 68.8548 15.9194L67.7903 16.9839C67.4355 16.5538 66.9731 16.2204 66.4032 15.9839C65.8441 15.7366 65.2419 15.6129 64.5968 15.6129C63.3387 15.6129 62.2742 16.0484 61.4032 16.9194C60.543 17.8011 60.1129 18.9032 60.1129 20.2258C60.1129 21.5484 60.543 22.6505 61.4032 23.5323C62.2742 24.4032 63.3387 24.8387 64.5968 24.8387C65.7473 24.8387 66.7043 24.5161 67.4677 23.871C68.2312 23.2258 68.672 22.3387 68.7903 21.2097H64.5968V19.8226H70.1935C70.2473 20.1237 70.2742 20.414 70.2742 20.6935ZM78.819 14.4516V15.871H73.561V19.5323H78.3029V20.9194H73.561V24.5806H78.819V26H72.0771V14.4516H78.819ZM84.7544 15.871V26H83.2705V15.871H80.0447V14.4516H87.9802V15.871H84.7544ZM94.5571 26H93.0732V14.4516H94.5571V26ZM100.82 15.871V26H99.3366V15.871H96.1108V14.4516H104.046V15.871H100.82ZM120.131 20.2258C120.131 21.9355 119.561 23.3656 118.421 24.5161C117.27 25.6774 115.862 26.2581 114.195 26.2581C112.518 26.2581 111.109 25.6774 109.969 24.5161C108.83 23.3656 108.26 21.9355 108.26 20.2258C108.26 18.5161 108.83 17.086 109.969 15.9355C111.109 14.7742 112.518 14.1935 114.195 14.1935C115.873 14.1935 117.281 14.7796 118.421 15.9516C119.561 17.1022 120.131 18.5269 120.131 20.2258ZM109.776 20.2258C109.776 21.5591 110.195 22.6613 111.034 23.5323C111.883 24.4032 112.937 24.8387 114.195 24.8387C115.453 24.8387 116.502 24.4032 117.34 23.5323C118.19 22.672 118.615 21.5699 118.615 20.2258C118.615 18.8817 118.19 17.7796 117.34 16.9194C116.502 16.0484 115.453 15.6129 114.195 15.6129C112.937 15.6129 111.883 16.0484 111.034 16.9194C110.195 17.7903 109.776 18.8925 109.776 20.2258ZM123.366 26H121.882V14.4516H123.688L129.301 23.4355H129.366L129.301 21.2097V14.4516H130.785V26H129.237L123.366 16.5806H123.301L123.366 18.8065V26Z" fill="black"/>
<path d="M150.771 46.2413H153.398V28.4808H150.771V46.2413ZM174.433 34.8784L171.422 42.5787H171.332L168.206 34.8784H165.377L170.063 45.6404L167.393 51.6273H170.131L177.355 34.8784H174.433ZM159.535 44.2239C158.674 44.2239 157.474 43.7906 157.474 42.7151C157.474 41.3455 158.968 40.8199 160.259 40.8199C161.413 40.8199 161.958 41.0713 162.659 41.4137C162.455 43.0589 161.052 44.2239 159.535 44.2239ZM159.852 34.4905C157.95 34.4905 155.979 35.3358 155.165 37.2098L157.497 38.1915C157.995 37.2098 158.923 36.8887 159.897 36.8887C161.256 36.8887 162.637 37.7113 162.659 39.1747V39.3565C162.183 39.0823 161.166 38.6717 159.92 38.6717C157.407 38.6717 154.847 40.0654 154.847 42.6696C154.847 45.0465 156.908 46.5781 159.217 46.5781C160.984 46.5781 161.958 45.7782 162.569 44.8405H162.659V46.2115H165.195V39.402C165.195 36.2494 162.863 34.4905 159.852 34.4905ZM143.616 37.0407H139.88V30.9529H143.616C145.58 30.9529 146.695 32.5938 146.695 33.9961C146.695 35.3728 145.58 37.0407 143.616 37.0407ZM143.549 28.4808H137.254V46.2413H139.88V39.5128H143.549C146.46 39.5128 149.322 37.3845 149.322 33.9961C149.322 30.6077 146.46 28.4808 143.549 28.4808ZM109.223 44.2268C107.408 44.2268 105.889 42.6938 105.889 40.5883C105.889 38.46 107.408 36.9029 109.223 36.9029C111.015 36.9029 112.42 38.46 112.42 40.5883C112.42 42.6938 111.015 44.2268 109.223 44.2268ZM112.24 35.8729H112.149C111.559 35.1639 110.425 34.5232 108.996 34.5232C106.002 34.5232 103.258 37.1771 103.258 40.5883C103.258 43.9753 106.002 46.6079 108.996 46.6079C110.425 46.6079 111.559 45.9671 112.149 45.2341H112.24V46.105C112.24 48.4165 111.015 49.6525 109.041 49.6525C107.431 49.6525 106.433 48.4847 106.024 47.5001L103.734 48.4619C104.391 50.0645 106.138 52.0322 109.041 52.0322C112.126 52.0322 114.735 50.2009 114.735 45.7384V34.8883H112.24V35.8729ZM116.55 46.2413H119.181V28.4794H116.55V46.2413ZM123.058 40.3823C122.991 38.048 124.851 36.8574 126.188 36.8574C127.233 36.8574 128.117 37.3831 128.411 38.1389L123.058 40.3823ZM131.224 38.3677C130.726 37.018 129.205 34.5232 126.098 34.5232C123.013 34.5232 120.451 36.9711 120.451 40.5655C120.451 43.9526 122.991 46.6079 126.392 46.6079C129.138 46.6079 130.726 44.9144 131.383 43.9298L129.342 42.556C128.662 43.5633 127.731 44.2268 126.392 44.2268C125.055 44.2268 124.102 43.6087 123.489 42.3969L131.496 39.0539L131.224 38.3677ZM67.4356 36.3772V38.9402H73.5135C73.3319 40.3823 72.856 41.435 72.1309 42.1667C71.2454 43.0603 69.8614 44.0449 67.4356 44.0449C63.6921 44.0449 60.7665 41.0003 60.7665 37.224C60.7665 33.4463 63.6921 30.4031 67.4356 30.4031C69.4546 30.4031 70.9286 31.2044 72.0169 32.2344L73.8091 30.4258C72.2886 28.9611 70.2711 27.8387 67.4356 27.8387C62.3095 27.8387 58 32.0511 58 37.224C58 42.3969 62.3095 46.6079 67.4356 46.6079C70.2021 46.6079 72.2886 45.6915 73.9218 43.9753C75.6014 42.2818 76.1223 39.9021 76.1223 37.9784C76.1223 37.3831 76.0772 36.8347 75.9857 36.3772H67.4356ZM83.0336 44.2268C81.2188 44.2268 79.6533 42.7165 79.6533 40.5655C79.6533 38.3904 81.2188 36.9029 83.0336 36.9029C84.847 36.9029 86.4125 38.3904 86.4125 40.5655C86.4125 42.7165 84.847 44.2268 83.0336 44.2268ZM83.0336 34.5232C79.7208 34.5232 77.0219 37.0635 77.0219 40.5655C77.0219 44.0449 79.7208 46.6079 83.0336 46.6079C86.3449 46.6079 89.0439 44.0449 89.0439 40.5655C89.0439 37.0635 86.3449 34.5232 83.0336 34.5232ZM96.1452 44.2268C94.3305 44.2268 92.7649 42.7165 92.7649 40.5655C92.7649 38.3904 94.3305 36.9029 96.1452 36.9029C97.96 36.9029 99.5242 38.3904 99.5242 40.5655C99.5242 42.7165 97.96 44.2268 96.1452 44.2268ZM96.1452 34.5232C92.8339 34.5232 90.135 37.0635 90.135 40.5655C90.135 44.0449 92.8339 46.6079 96.1452 46.6079C99.4566 46.6079 102.155 44.0449 102.155 40.5655C102.155 37.0635 99.4566 34.5232 96.1452 34.5232Z" fill="black"/>
</svg>
