<svg width="18" height="17" viewBox="0 0 18 17" fill="none" xmlns="http://www.w3.org/2000/svg">
<g clip-path="url(#clip0_5_1416)">
<g clip-path="url(#clip1_5_1416)">
<path opacity="0.7" d="M13.3171 3.36942C13.1339 3.36942 12.9548 3.42374 12.8025 3.52553C12.6502 3.6273 12.5314 3.77196 12.4613 3.94121C12.3912 4.11046 12.3729 4.2967 12.4086 4.47637C12.4443 4.65605 12.5325 4.82109 12.6621 4.95063C12.7917 5.08016 12.9567 5.16839 13.1364 5.20413C13.316 5.23986 13.5023 5.22152 13.6715 5.15141C13.8408 5.08131 13.9854 4.96259 14.0872 4.81027C14.189 4.65795 14.2433 4.47886 14.2433 4.29567C14.2433 4.05001 14.1458 3.81442 13.972 3.64071C13.7983 3.46701 13.5627 3.36942 13.3171 3.36942ZM16.8677 5.23736C16.8527 4.59693 16.7328 3.9633 16.5126 3.3617C16.3164 2.84697 16.0109 2.38087 15.6173 1.99548C15.235 1.59984 14.7679 1.2963 14.251 1.10782C13.651 0.881017 13.0167 0.758326 12.3754 0.745042C11.5572 0.69873 11.2948 0.69873 9.19532 0.69873C7.09582 0.69873 6.83338 0.69873 6.01519 0.745042C5.37388 0.758326 4.73955 0.881017 4.13953 1.10782C3.62368 1.29821 3.15689 1.60149 2.77332 1.99548C2.37767 2.3777 2.07413 2.84489 1.88566 3.3617C1.65885 3.96172 1.53616 4.59604 1.52288 5.23736C1.47656 6.05555 1.47656 6.31799 1.47656 8.41748C1.47656 10.517 1.47656 10.7794 1.52288 11.5976C1.53616 12.2389 1.65885 12.8733 1.88566 13.4733C2.07413 13.9901 2.37767 14.4573 2.77332 14.8395C3.15689 15.2335 3.62368 15.5367 4.13953 15.7271C4.73955 15.954 5.37388 16.0766 6.01519 16.0899C6.83338 16.1362 7.09582 16.1362 9.19532 16.1362C11.2948 16.1362 11.5572 16.1362 12.3754 16.0899C13.0167 16.0766 13.651 15.954 14.251 15.7271C14.7679 15.5387 15.235 15.2351 15.6173 14.8395C16.0127 14.4555 16.3184 13.989 16.5126 13.4733C16.7328 12.8716 16.8527 12.2381 16.8677 11.5976C16.8677 10.7794 16.914 10.517 16.914 8.41748C16.914 6.31799 16.914 6.05555 16.8677 5.23736ZM15.4783 11.505C15.4727 11.995 15.384 12.4804 15.2159 12.9407C15.0926 13.2766 14.8947 13.5801 14.637 13.8283C14.3866 14.0835 14.0837 14.281 13.7493 14.4072C13.2891 14.5753 12.8036 14.664 12.3136 14.6697C11.5418 14.7083 11.2562 14.716 9.22619 14.716C7.19616 14.716 6.91057 14.716 6.13869 14.6697C5.62994 14.6792 5.12337 14.6008 4.64125 14.4381C4.32153 14.3055 4.03252 14.1084 3.79219 13.8592C3.536 13.6113 3.34052 13.3075 3.221 12.9715C3.03255 12.5047 2.92803 12.0082 2.91225 11.505C2.91225 10.7331 2.86594 10.4475 2.86594 8.41748C2.86594 6.38745 2.86594 6.10186 2.91225 5.32999C2.91571 4.82908 3.00715 4.33268 3.18241 3.86342C3.3183 3.53762 3.52687 3.2472 3.79219 3.01436C4.0267 2.74897 4.31652 2.53819 4.64125 2.39686C5.11175 2.22708 5.60764 2.13834 6.10782 2.13442C6.87969 2.13442 7.16528 2.08811 9.19532 2.08811C11.2253 2.08811 11.5109 2.08811 12.2828 2.13442C12.7728 2.14004 13.2582 2.22878 13.7185 2.39686C14.0692 2.52704 14.384 2.73869 14.637 3.01436C14.89 3.25146 15.0876 3.54134 15.2159 3.86342C15.3875 4.33344 15.4763 4.82964 15.4783 5.32999C15.5169 6.10186 15.5246 6.38745 15.5246 8.41748C15.5246 10.4475 15.5169 10.7331 15.4783 11.505ZM9.19532 4.45777C8.41249 4.45929 7.64768 4.69282 6.99752 5.12884C6.34736 5.56487 5.84104 6.18383 5.54253 6.9075C5.24401 7.63118 5.16668 8.42711 5.32035 9.19471C5.474 9.96231 5.85174 10.6671 6.40582 11.2201C6.9599 11.7732 7.66547 12.1496 8.43336 12.3017C9.20126 12.4539 9.99704 12.3749 10.7201 12.075C11.4432 11.7751 12.0612 11.2676 12.4959 10.6166C12.9306 9.96558 13.1627 9.20031 13.1627 8.41748C13.1637 7.89655 13.0617 7.38056 12.8626 6.89918C12.6636 6.41779 12.3712 5.98053 12.0025 5.61253C11.6338 5.24453 11.1959 4.95306 10.7142 4.75489C10.2324 4.55671 9.71625 4.45573 9.19532 4.45777ZM9.19532 10.9878C8.68695 10.9878 8.19001 10.8371 7.76731 10.5547C7.34462 10.2722 7.01517 9.87078 6.82063 9.40111C6.62608 8.93144 6.57518 8.41463 6.67436 7.91603C6.77354 7.41743 7.01834 6.95944 7.37781 6.59998C7.73727 6.24051 8.19526 5.99571 8.69387 5.89653C9.19247 5.79735 9.70927 5.84825 10.1789 6.0428C10.6486 6.23734 11.05 6.56679 11.3324 6.98948C11.6148 7.41217 11.7656 7.90912 11.7656 8.41748C11.7656 8.75503 11.6991 9.08926 11.57 9.40111C11.4408 9.71296 11.2514 9.99632 11.0128 10.235C10.7741 10.4737 10.4908 10.663 10.1789 10.7922C9.86709 10.9213 9.53286 10.9878 9.19532 10.9878Z" fill="black"/>
</g>
</g>
<defs>
<clipPath id="clip0_5_1416">
<rect width="17" height="16" fill="white" transform="translate(0.5 0.29834)"/>
</clipPath>
<clipPath id="clip1_5_1416">
<rect width="17" height="16" fill="white" transform="translate(0.5 0.29834)"/>
</clipPath>
</defs>
</svg>
