<svg width="213" height="40" viewBox="0 0 213 40" fill="none" xmlns="http://www.w3.org/2000/svg">
<g clip-path="url(#clip0_29_1905)">
<path d="M75.6596 0.139893C75.6596 4.23989 72.2096 8.82989 67.7296 9.84989C67.0196 10.0299 66.2996 10.1199 65.5696 10.1399H40.3796C40.3496 9.37989 40.3896 8.60989 40.5196 7.85989C41.4996 3.47989 45.3096 0.309893 49.7996 0.139893L75.6596 0.139893Z" fill="white"/>
<path d="M40.4199 14.74H64.7599C69.9699 14.76 73.8799 17.29 75.1399 21.74C75.3899 22.72 75.5699 23.73 75.6499 24.74H50.9599C45.7599 24.7 41.2999 21.36 40.4099 16.49C40.3699 15.91 40.3699 15.32 40.4099 14.74H40.4199Z" fill="white"/>
<path d="M-0.000139939 10.1399C-0.0601399 7.69989 0.84986 5.32989 2.51986 3.54989C4.37986 1.36989 7.10986 0.139893 9.96986 0.169893C17.8499 0.159893 35.2699 0.139893 35.2699 0.139893V1.17989C34.6899 5.70989 30.1699 10.0899 25.4899 10.1399H-0.000139939Z" fill="white"/>
<path d="M35.27 29.8599C35.16 30.8099 34.99 31.7499 34.76 32.6799C33.54 36.6499 29.71 39.8199 25.56 39.8599H0V39.0899C0.33 34.6899 4.6 29.8599 9.46 29.8599H35.28H35.27Z" fill="white"/>
<path d="M0 14.7499C0.77 14.7499 16.62 14.7199 24.28 14.7499C29.54 14.7699 33.94 17.8399 35.02 22.4899C35.17 23.2299 35.25 23.9799 35.28 24.7399H10.48C5.37 24.7099 1.36 21.5999 0.28 16.9899C0.14 16.2499 0.05 15.5099 0 14.7599L0 14.7499Z" fill="white"/>
<path d="M55.7095 29.8599C55.6195 35.3799 51.1395 39.8299 45.6195 39.8599H40.4395C40.4395 34.7299 44.0395 29.8599 50.7895 29.8599H55.7095Z" fill="white"/>
<path d="M212.219 14.8899L211.319 19.3799H206.269L204.649 27.4599C204.579 27.7599 204.579 28.0199 204.579 28.2799C204.579 29.5099 205.259 30.2299 206.729 30.2299C207.519 30.2299 208.349 29.9699 209.099 29.5199L209.969 33.6699C208.499 34.5699 206.689 34.8699 204.919 34.8699C201.149 34.8699 198.589 32.7799 198.589 29.2599C198.589 28.6999 198.659 28.0999 198.779 27.4999L200.399 19.3799H197.269L198.169 14.8899H201.299L202.279 9.98988H208.159L207.179 14.8899H212.229H212.219ZM181.469 11.1199C179.699 11.1199 178.759 12.0599 178.309 14.1499L178.159 14.8999H183.319L182.419 19.3899H177.409L174.319 34.5799H168.439L172.659 13.7399C173.529 9.35988 176.499 6.51988 181.479 6.51988C183.289 6.51988 184.979 6.92988 186.109 7.63988L183.809 11.8299C183.169 11.3399 182.419 11.1199 181.469 11.1199ZM191.199 34.5699H185.359L189.389 14.4399H195.229L191.199 34.5699ZM193.309 11.6399C191.239 11.6399 189.879 10.2899 189.879 8.60988C189.879 6.65988 191.429 5.12988 193.759 5.12988C195.829 5.12988 197.229 6.39988 197.229 8.04988C197.229 10.1799 195.649 11.6399 193.309 11.6399Z" fill="white"/>
<path d="M156.91 18.5198C154.08 18.5198 152.16 20.1698 151.37 22.6698H161.43C161.43 20.0098 159.62 18.5198 156.91 18.5198ZM166.48 26.0798H150.96C151.15 28.8098 152.85 30.1898 156.2 30.1898C158.27 30.1898 160.23 29.5198 161.63 28.3198L164.08 32.1698C161.74 34.0398 158.69 34.8598 155.6 34.8598C149.27 34.8598 145.24 31.3098 145.24 25.8498C145.24 19.1198 150.14 14.1398 157.18 14.1398C163.1 14.1398 166.82 17.6198 166.82 22.9998C166.82 24.0798 166.67 25.1298 166.48 26.0698V26.0798ZM146.55 11.8298C145.91 11.3398 145.16 11.1198 144.21 11.1198C142.44 11.1198 141.5 12.0598 141.04 14.1498L140.89 14.8998H146.05L145.15 19.3898H140.14L137.05 34.5798H131.17L135.39 13.7498C136.26 9.36978 139.23 6.52979 144.21 6.52979C146.02 6.52979 147.71 6.93979 148.84 7.64979L146.54 11.8398L146.55 11.8298ZM117.5 18.9698C114.03 18.9698 111.55 21.6598 111.55 25.5898C111.55 28.3198 113.24 30.0398 116.19 30.0398C119.66 30.0398 122.14 27.3498 122.14 23.4198C122.14 20.6898 120.44 18.9698 117.5 18.9698ZM125.79 34.5698H120.21L120.59 32.5898C118.97 34.0498 116.86 34.8698 114.37 34.8698C109.66 34.8698 105.63 31.5798 105.63 25.8598C105.63 19.0898 110.57 14.1498 116.82 14.1498C119.76 14.1498 122.1 15.0798 123.42 17.1798L123.95 14.4498H129.83L125.8 34.5698H125.79ZM102.02 20.0898C100.14 18.9298 97.9097 18.5598 96.0297 18.5598C93.3197 18.5598 92.1097 19.4598 92.1097 20.5398C92.1097 23.4898 102.81 21.1398 102.81 27.8298C102.81 32.4298 98.4397 34.8598 92.5997 34.8598C89.0197 34.8598 85.6297 33.9598 83.9297 32.7698L86.1897 28.5398C87.9197 29.6998 90.6697 30.4498 93.2397 30.4498C95.9897 30.4498 97.1997 29.6998 97.1997 28.5098C97.1997 25.6698 86.4597 28.0198 86.4597 21.2198C86.4597 16.6898 90.7197 14.1498 96.6397 14.1498C99.4697 14.1498 102.29 14.7898 104.14 15.8298L102.03 20.0898H102.02Z" fill="white"/>
</g>
<defs>
<clipPath id="clip0_29_1905">
<rect width="212.22" height="39.72" fill="white" transform="translate(0 0.139893)"/>
</clipPath>
</defs>
</svg>
