<svg version="1.2" xmlns="http://www.w3.org/2000/svg" viewBox="0 0 100 102" width="100" height="102">
	<title>price-svg</title>
	<style>
		tspan { white-space:pre } 
		.s0 { fill: #000000 } 
		.t1 { font-size: 5px;fill: #000000;font-family: "Arbeit  Regular" } 
	</style>
	<path id="Layer" fill-rule="evenodd" class="s0" d="m77.8 8.1c1.8 2.7 2.8 6.2 2.8 10.2q0 0.7 0 1.5c1.1 0.4 2.2 1 3 1.8l12.3 11.7c1.6 1.6 2.5 3.7 2.5 6v53.9c0 4-3.3 7.2-7.3 7.2h-41.4c-2.5 0-4.7-1.2-6-3.1l-0.9 0.9c-2.9 2.9-7.5 2.9-10.4 0l-28.7-28.6c-2.8-2.9-2.8-7.6 0-10.4l37.8-37.7c1.3-1.4 3.2-2.2 5.2-2.2h13.5q-0.1-0.5-0.1-1c0-4 1.1-7.5 2.9-10.2 1.8-2.7 4.4-4.5 7.4-4.5 3 0 5.6 1.8 7.4 4.5zm-12.5 1.5c-1.5 2.1-2.4 5.2-2.4 8.7q0 0.5 0 1h15q0-0.5 0-1c0-3.5-0.9-6.6-2.4-8.7-1.4-2.1-3.2-3.3-5.1-3.3-1.9 0-3.7 1.2-5.1 3.3zm-21.9 13.8l-37.7 37.7c-1.8 1.8-1.8 4.7 0 6.5l28.6 28.7c1.9 1.8 4.8 1.8 6.6 0l1.6-1.7q-0.1-0.7-0.1-1.5v-53.8q0-0.4 0-0.9 0 0 0-0.1c0.3-1.9 1.1-3.6 2.5-4.9q0-0.1 0-0.1l11.8-11.2h-10c-1.3 0-2.4 0.4-3.3 1.3zm18.4-1.2c-1 0.2-2 0.7-2.7 1.4l-12.3 11.7c-1.1 1.1-1.7 2.5-1.7 4v53.8q0 0.5 0.1 0.9 0 0.1 0.1 0.3c0.5 1.9 2.2 3.4 4.4 3.4h41.4c2.5 0 4.6-2 4.6-4.6v-53.8c0-1.5-0.7-3-1.7-4l-12.3-11.7q-0.7-0.7-1.5-1c-0.5 2.2-1.3 4.2-2.4 5.9q-0.6 1-1.4 1.8 0.1 0.6 0.1 1.3c0 3.4-2.7 6.1-6.1 6.1-3.4 0-6.1-2.7-6.1-6.1 0-3.4 2.7-6.1 6.1-6.1 1.8 0 3.5 0.8 4.6 2.1q0.3-0.3 0.5-0.7c0.9-1.3 1.6-2.9 2-4.8h-14.6q-0.6 0-1.1 0.1zm5.2 9.4c0 1.9 1.5 3.4 3.4 3.4 1.7 0 3-1.2 3.3-2.8-1 0.5-2.1 0.8-3.3 0.8-0.8 0-1.4-0.6-1.4-1.4 0-0.4 0.2-0.7 0.4-1 0.3-0.2 0.6-0.4 1-0.4q1.3 0 2.6-0.7c-0.6-0.8-1.5-1.3-2.6-1.3-1.9 0-3.4 1.5-3.4 3.4zm22.7 35.5c0 10.6-8.7 19.3-19.3 19.3-10.7 0-19.3-8.7-19.3-19.3 0-10.6 8.6-19.3 19.3-19.3 10.6 0 19.3 8.7 19.3 19.3zm-35.9 0c0 9.2 7.4 16.6 16.6 16.6 9.2 0 16.5-7.4 16.5-16.6 0-9.2-7.3-16.6-16.5-16.6-9.2 0-16.6 7.4-16.6 16.6zm17.6-11.5c0.2 0.2 0.4 0.6 0.4 1v1.4h0.4c2.3 0 4.4 1.6 5.2 3.8 0.2 0.7-0.2 1.5-0.9 1.7-0.4 0.1-0.8 0.1-1.1-0.1-0.3-0.1-0.5-0.4-0.7-0.8-0.3-1.1-1.4-1.8-2.5-1.8h-3.6c-1.4 0-2.5 1.1-2.5 2.4 0 1.4 1.1 2.5 2.5 2.5h3.6c2.9 0 5.2 2.4 5.2 5.3 0 2.8-2.3 5.2-5.2 5.2h-0.4v1.4c0 0.4-0.2 0.8-0.4 1-0.3 0.3-0.6 0.4-1 0.4-0.8 0-1.4-0.6-1.4-1.4v-1.4h-0.4c-2.3 0-4.4-1.5-5.2-3.8-0.2-0.7 0.2-1.5 0.9-1.7 0.7-0.3 1.5 0.1 1.8 0.9h-0.1c0.4 1.1 1.5 1.9 2.6 1.9h1.7q0.1-0.1 0.1-0.1 0.1 0 0.1 0.1h1.7c1.4 0 2.5-1.1 2.5-2.5 0-1.4-1.1-2.5-2.5-2.5h-3.6c-2.9 0-5.2-2.4-5.2-5.3 0-2.8 2.3-5.2 5.2-5.2h0.4v-1.4c0-0.8 0.6-1.4 1.4-1.4 0.4 0 0.7 0.1 1 0.4z"/>
	<text id="Created by Alzam" style="transform: matrix(1,0,0,1,0,119.5)" >
		<tspan x="0" y="0" class="t1">Created by Alzam
</tspan>
	</text>
	<text id="from Noun Project" style="transform: matrix(1,0,0,1,0,124.5)" >
		<tspan x="0" y="0" class="t1">from Noun Project
</tspan>
	</text>
</svg>