<svg width="33" height="32" viewBox="0 0 33 32" fill="none" xmlns="http://www.w3.org/2000/svg">
<g clip-path="url(#clip0_191_504)">
<path fill-rule="evenodd" clip-rule="evenodd" d="M18.2971 4.7146C18.9425 4.8386 19.8851 5.16127 20.3398 6.0706C21.3358 8.0626 20.5131 9.95594 19.6305 11.1333C19.0545 11.9013 18.3131 12.6239 17.4505 13.0666C17.2705 13.1599 16.9038 13.3333 16.4811 13.3333C15.6931 13.3333 14.9211 12.9746 14.2878 12.5266C14.1678 12.9346 14.0518 13.3826 13.9518 13.8573C13.754 14.768 13.6468 15.6961 13.6318 16.6279C15.0358 16.1746 16.4718 16.2226 17.7091 16.9213C18.6384 16.19 19.7081 15.6576 20.8518 15.3573C22.5851 14.9026 24.6651 14.9653 26.5545 16.2239C27.9078 17.1266 28.9331 18.8266 29.1398 20.6866C29.3558 22.6253 28.6825 24.7453 26.6465 26.3746C25.2091 27.5239 23.0185 27.9679 21.0025 28.1293C18.9158 28.2973 16.7118 28.1826 15.0011 27.9919C11.8305 27.6399 9.3958 26.7546 7.69446 25.8413C6.57846 25.2413 5.0518 24.4119 4.5678 23.1413C4.24113 22.2799 4.32646 21.2346 4.40646 20.3386C4.51313 19.1639 4.77446 17.6973 5.2638 16.1079C6.2398 12.9359 8.15046 9.1826 11.6318 6.30527C12.7025 5.41993 14.4945 4.8706 15.9945 4.6866C16.7678 4.59193 17.5811 4.5786 18.2971 4.7146Z" fill="black"/>
</g>
<defs>
<clipPath id="clip0_191_504">
<rect width="32" height="32" fill="white" transform="translate(0.481201)"/>
</clipPath>
</defs>
</svg>
