<svg width="16" height="12" viewBox="0 0 16 12" fill="none" xmlns="http://www.w3.org/2000/svg">
<g clip-path="url(#clip0_5_1411)">
<g clip-path="url(#clip1_5_1411)">
<path opacity="0.7" d="M15.0329 3.84813C15.0329 3.84813 14.8926 2.85477 14.4608 2.4186C13.9141 1.84454 13.3028 1.84172 13.0225 1.80795C11.015 1.66162 8.0009 1.66162 8.0009 1.66162H7.99529C7.99529 1.66162 4.98118 1.66162 2.97365 1.80795C2.69327 1.84172 2.08203 1.84454 1.53529 2.4186C1.1035 2.85477 0.966111 3.84813 0.966111 3.84813C0.966111 3.84813 0.820312 5.01595 0.820312 6.18096V7.2728C0.820312 8.43782 0.963307 9.60564 0.963307 9.60564C0.963307 9.60564 1.1035 10.599 1.53249 11.0351C2.07923 11.6092 2.79701 11.5895 3.11665 11.6514C4.26621 11.7611 7.99809 11.7949 7.99809 11.7949C7.99809 11.7949 11.015 11.7893 13.0225 11.6458C13.3028 11.612 13.9141 11.6092 14.4608 11.0351C14.8926 10.599 15.0329 9.60564 15.0329 9.60564C15.0329 9.60564 15.1758 8.44063 15.1758 7.2728V6.18096C15.1758 5.01595 15.0329 3.84813 15.0329 3.84813ZM6.51488 8.59821V4.54882L10.3925 6.58055L6.51488 8.59821Z" fill="black"/>
</g>
</g>
<defs>
<clipPath id="clip0_5_1411">
<rect width="16" height="11" fill="white" transform="translate(0 0.79834)"/>
</clipPath>
<clipPath id="clip1_5_1411">
<rect width="16" height="11" fill="white" transform="translate(0 0.79834)"/>
</clipPath>
</defs>
</svg>
